<?xml version="1.0" encoding="UTF-8" standalone="no"?>
<svg
   xmlns:dc="http://purl.org/dc/elements/1.1/"
   xmlns:cc="http://creativecommons.org/ns#"
   xmlns:rdf="http://www.w3.org/1999/02/22-rdf-syntax-ns#"
   xmlns:svg="http://www.w3.org/2000/svg"
   xmlns="http://www.w3.org/2000/svg"
   viewBox="0 0 416.13751 415.52499"
   height="415.52499"
   width="416.13751"
   xml:space="preserve"
   version="1.1"
   id="svg2"><metadata
     id="metadata8"><rdf:RDF><cc:Work
         rdf:about=""><dc:format>image/svg+xml</dc:format><dc:type
           rdf:resource="http://purl.org/dc/dcmitype/StillImage" /></cc:Work></rdf:RDF></metadata><defs
     id="defs6" /><g
     transform="matrix(1.25,0,0,-1.25,0,415.525)"
     id="g10"><g
       transform="scale(0.1,0.1)"
       id="g12"><path
         id="path14"
         style="fill:#4bc2aa;fill-opacity:1;fill-rule:nonzero;stroke:none"
         d="m 1666.34,0 c 7.09,4.12891 15.39,8.60938 23.43,13.4297 220.51,129.6213 422.98,283.1723 608.61,458.9683 11.89,11.211 21.02,24.204 28.37,38.571 11.91,23.453 23.99,46.761 35.42,70.441 87.87,182.57 106.72,371.852 48.38,566.4 -113.33,378.12 -477.96,595.1 -843.03,549.51 -104.34,-13.06 -201.97,-46.28 -292.94,-97.35 -174.01,-97.8 -359.51,-138.08 -558.06,-119.07 -97.411,9.31 -190.731,34.2 -280.235,73.51 -70.57,30.94 -136.008,70.31 -196.769,117.61 -4.301,3.22 -9.055,5.81 -16.969,10.96 2.668,-8.69 3.73,-13.51 5.43,-18.02 C 306.031,1466 402.637,1276.49 517.492,1096.3 641.414,901.719 784.074,722.07 945.293,557.09 1106.5,392.141 1282.95,245.422 1474.51,116.949 1558.76,60.3711 1640.37,10.5195 1666.34,0" /><path
         id="path16"
         style="fill:#76b4e5;fill-opacity:1;fill-rule:nonzero;stroke:none"
         d="m 2581.16,782.5 c 9.64,4.57 13.37,11.91 18.19,17.859 70.48,87.602 136.38,178.59 197.52,272.971 219.43,339.27 372.62,706.11 457.88,1101.1 29.02,134.21 49.49,269.66 61.45,406.46 8.24,93.13 12.78,186.31 12.86,279.81 0,6.41 -0.64,12.9 -1.06,19.28 -9.08,5.3 -17.1,10.22 -25.35,14.9 -71.85,40.55 -144.94,78.55 -219.64,113.46 -107.75,50.27 -217.1,96.76 -330.67,132.45 -138.3,43.33 -277.98,48.12 -419,14.14 -401.13,-96.7 -657.49,-489.38 -581.56,-894.88 42.14,-224.76 162.68,-398.23 356.17,-520.69 12.9,-8.18 26.15,-15.9 39.27,-23.89 141.27,-86.47 252.02,-202.33 331.11,-347.82 83.2,-152.96 120.62,-316.72 111,-490.822 -1.71,-30.488 -5.26,-60.887 -8.17,-94.328" /><path
         id="path18"
         style="fill:#f39f0f;fill-opacity:1;fill-rule:nonzero;stroke:none"
         d="m -0.00390625,2879.64 0,-21.67 C 0.0546875,2729.45 8.47266,2601.41 23.8164,2473.79 c 13.8711,-115.2 33.9024,-229.36 59.8594,-342.5 4.5703,-19.92 10.7812,-38.99 19.5122,-57.67 157.054,-334.25 520.98,-512.01 881.835,-430.34 275.117,62.27 498.097,274.34 574.637,545.82 21.16,75.04 28.37,151.72 30.71,229.17 1.59,51.12 6.41,101.86 15.97,152.12 58.72,307.47 264.36,561.58 552.4,682.13 16.15,6.71 32.63,12.7 48.86,19.19 2.33,0.88 6,1.16 4.93,5.39 -45.22,16.15 -317.12,43.26 -480.13,46.43 C 1382.72,3330.46 1039.94,3284.46 704.695,3184 458.531,3110.24 224.133,3009.03 -0.00390625,2879.64" /></g></g></svg>